<svg xmlns="http://www.w3.org/2000/svg" width="760" height="1000" viewBox="0 0 760 1000"><style>.title{font:700 34px Arial,sans-serif;fill:#1D2C41}.subtitle{font:18px Arial,sans-serif;fill:#52657A}.label{font:700 22px Arial,sans-serif;fill:#1D2C41}.code{font:17px Arial,sans-serif;fill:#52657A}</style><rect width="760" height="1000" fill="#fff"/><text x="48" y="60" class="title">Paleta SIP</text><text x="48" y="91" class="subtitle">Colores extraídos de las referencias JPG</text><rect x="48" y="125" width="92" height="64" rx="10" fill="#1D2C41" stroke="#D7E0E8"/><text x="164" y="151" class="label">Azul marino del logo</text><text x="164" y="178" class="code">#1D2C41 · --sip-navy-logo</text><rect x="48" y="215" width="92" height="64" rx="10" fill="#011631" stroke="#D7E0E8"/><text x="164" y="241" class="label">Azul marino profundo</text><text x="164" y="268" class="code">#011631 · --sip-navy-deep</text><rect x="48" y="305" width="92" height="64" rx="10" fill="#1777BB" stroke="#D7E0E8"/><text x="164" y="331" class="label">Azul Pacífico claro</text><text x="164" y="358" class="code">#1777BB · --sip-blue-logo-top</text><rect x="48" y="395" width="92" height="64" rx="10" fill="#1469AC" stroke="#D7E0E8"/><text x="164" y="421" class="label">Azul Pacífico medio</text><text x="164" y="448" class="code">#1469AC · --sip-blue-logo-mid</text><rect x="48" y="485" width="92" height="64" rx="10" fill="#145998" stroke="#D7E0E8"/><text x="164" y="511" class="label">Azul Pacífico oscuro</text><text x="164" y="538" class="code">#145998 · --sip-blue-logo-bottom</text><rect x="48" y="575" width="92" height="64" rx="10" fill="#0189F5" stroke="#D7E0E8"/><text x="164" y="601" class="label">Azul digital</text><text x="164" y="628" class="code">#0189F5 · --sip-blue-digital</text><rect x="48" y="665" width="92" height="64" rx="10" fill="#0076D2" stroke="#D7E0E8"/><text x="164" y="691" class="label">Azul digital profundo</text><text x="164" y="718" class="code">#0076D2 · --sip-blue-digital-dark</text><rect x="48" y="755" width="92" height="64" rx="10" fill="#F3F8FD" stroke="#D7E0E8"/><text x="164" y="781" class="label">Blanco hielo</text><text x="164" y="808" class="code">#F3F8FD · --sip-ice</text><rect x="48" y="845" width="92" height="64" rx="10" fill="#FFFFFF" stroke="#D7E0E8"/><text x="164" y="871" class="label">Blanco</text><text x="164" y="898" class="code">#FFFFFF · --sip-white</text></svg>